REM DIRINDEX 1\2,1\3
REM DIRNAME folder01,folder02,folder03
TITLE ""
FILE "CD1Track07.mp3" MP3
  TRACK 01 AUDIO
    TITLE "0:"
    INDEX 01 00:00:00
  TRACK 02 AUDIO
    TITLE "3:cjc102_0307"
    INDEX 01 00:00:25
  TRACK 03 AUDIO
    TITLE "0:"
    INDEX 01 00:01:17
  TRACK 04 AUDIO
    TITLE "2:cjc102_0308"
    INDEX 01 00:01:44
  TRACK 05 AUDIO
    TITLE "0:"
    INDEX 01 00:02:47
  TRACK 06 AUDIO
    TITLE "3:cjc102_0309"
    INDEX 01 00:03:43
  TRACK 07 AUDIO
    TITLE "0:"
    INDEX 01 00:04:25
  TRACK 08 AUDIO
    TITLE "2:cjc102_0310"
    INDEX 01 00:04:48
  TRACK 09 AUDIO
    TITLE "0:"
    INDEX 01 00:05:67
  TRACK 10 AUDIO
    TITLE "3:cjc102_0311"
    INDEX 01 00:06:37
  TRACK 11 AUDIO
    TITLE "0:"
    INDEX 01 00:07:39
  TRACK 12 AUDIO
    TITLE "2:cjc102_0312"
    INDEX 01 00:07:45
  TRACK 13 AUDIO
    TITLE "0:"
    INDEX 01 00:08:56
  TRACK 14 AUDIO
    TITLE "3:cjc102_0313"
    INDEX 01 00:09:51
  TRACK 15 AUDIO
    TITLE "0:"
    INDEX 01 00:10:43
  TRACK 16 AUDIO
    TITLE "2:cjc102_0314"
    INDEX 01 00:10:47
  TRACK 17 AUDIO
    TITLE "0:"
    INDEX 01 00:11:54
  TRACK 18 AUDIO
    TITLE "3:cjc102_0315"
    INDEX 01 00:12:50
  TRACK 19 AUDIO
    TITLE "0:"
    INDEX 01 00:13:28
  TRACK 20 AUDIO
    TITLE "2:cjc102_0316"
    INDEX 01 00:13:67
  TRACK 21 AUDIO
    TITLE "0:"
    INDEX 01 00:14:62
  TRACK 22 AUDIO
    TITLE "3:cjc102_0317"
    INDEX 01 00:15:50
  TRACK 23 AUDIO
    TITLE "0:"
    INDEX 01 00:16:42
  TRACK 24 AUDIO
    TITLE "2:cjc102_0318"
    INDEX 01 00:16:63
  TRACK 25 AUDIO
    TITLE "0:"
    INDEX 01 00:17:69
  TRACK 26 AUDIO
    TITLE "3:cjc102_0319"
    INDEX 01 00:18:68
  TRACK 27 AUDIO
    TITLE "0:"
    INDEX 01 00:19:58
  TRACK 28 AUDIO
    TITLE "2:cjc102_0320"
    INDEX 01 00:20:30
  TRACK 29 AUDIO
    TITLE "0:"
    INDEX 01 00:21:21
  TRACK 30 AUDIO
    TITLE "2:cjc102_0321"
    INDEX 01 00:22:09
  TRACK 31 AUDIO
    TITLE "0:"
    INDEX 01 00:23:14
  TRACK 32 AUDIO
    TITLE "3:cjc102_0322"
    INDEX 01 00:24:22
  TRACK 33 AUDIO
    TITLE "0:"
    INDEX 01 00:25:23
  TRACK 34 AUDIO
    TITLE "2:cjc102_0323"
    INDEX 01 00:25:46
  TRACK 35 AUDIO
    TITLE "0:"
    INDEX 01 00:26:54
  TRACK 36 AUDIO
    TITLE "2:cjc102_0324"
    INDEX 01 00:27:38
  TRACK 37 AUDIO
    TITLE "0:"
    INDEX 01 00:28:43
  TRACK 38 AUDIO
    TITLE "3:cjc102_0325"
    INDEX 01 00:29:74
  TRACK 39 AUDIO
    TITLE "0:"
    INDEX 01 00:30:65
  TRACK 40 AUDIO
    TITLE "2:cjc102_0326"
    INDEX 01 00:31:06
  TRACK 41 AUDIO
    TITLE "0:"
    INDEX 01 00:32:31
  TRACK 42 AUDIO
    TITLE "3:cjc102_0327"
    INDEX 01 00:33:68
  TRACK 43 AUDIO
    TITLE "0:"
    INDEX 01 00:34:59
  TRACK 44 AUDIO
    TITLE "2:cjc102_0328"
    INDEX 01 00:35:00
  TRACK 45 AUDIO
    TITLE "0:"
    INDEX 01 00:36:25
  TRACK 46 AUDIO
    TITLE "3:cjc102_0329"
    INDEX 01 00:37:22
  TRACK 47 AUDIO
    TITLE "0:"
    INDEX 01 00:38:41
  TRACK 48 AUDIO
    TITLE "2:cjc102_0330"
    INDEX 01 00:38:63
  TRACK 49 AUDIO
    TITLE "0:"
    INDEX 01 00:40:05
  TRACK 50 AUDIO
    TITLE "3:cjc102_0331"
    INDEX 01 00:41:04
  TRACK 51 AUDIO
    TITLE "0:"
    INDEX 01 00:42:06
  TRACK 52 AUDIO
    TITLE "2:cjc102_0332"
    INDEX 01 00:42:12
  TRACK 53 AUDIO
    TITLE "0:"
    INDEX 01 00:43:23
  TRACK 54 AUDIO
    TITLE "3:cjc102_0333"
    INDEX 01 00:44:67
  TRACK 55 AUDIO
    TITLE "0:"
    INDEX 01 00:46:04
  TRACK 56 AUDIO
    TITLE "2:cjc102_0334"
    INDEX 01 00:46:06
  TRACK 57 AUDIO
    TITLE "0:"
    INDEX 01 00:47:23
  TRACK 58 AUDIO
    TITLE "3:cjc102_0335"
    INDEX 01 00:48:02
  TRACK 59 AUDIO
    TITLE "0:"
    INDEX 01 00:49:21
  TRACK 60 AUDIO
    TITLE "2:cjc102_0336"
    INDEX 01 00:49:25
  TRACK 61 AUDIO
    TITLE "0:"
    INDEX 01 00:50:39
  TRACK 62 AUDIO
    TITLE "3:cjc102_0337"
    INDEX 01 00:51:28
  TRACK 63 AUDIO
    TITLE "0:"
    INDEX 01 00:52:36
  TRACK 64 AUDIO
    TITLE "2:cjc102_0338"
    INDEX 01 00:52:45
  TRACK 65 AUDIO
    TITLE "0:"
    INDEX 01 00:53:53
  TRACK 66 AUDIO
    TITLE "3:cjc102_0339"
    INDEX 01 00:54:44
  TRACK 67 AUDIO
    TITLE "0:"
    INDEX 01 00:55:55
  TRACK 68 AUDIO
    TITLE "2:cjc102_0340"
    INDEX 01 00:55:65
  TRACK 69 AUDIO
    TITLE "0:"
    INDEX 01 00:57:03
  TRACK 70 AUDIO
    TITLE "3:cjc102_0341"
    INDEX 01 00:58:17
  TRACK 71 AUDIO
    TITLE "0:"
    INDEX 01 00:59:30
  TRACK 72 AUDIO
    TITLE "2:cjc102_0342"
    INDEX 01 01:00:06
  TRACK 73 AUDIO
    TITLE "0:"
    INDEX 01 01:01:23
  TRACK 74 AUDIO
    TITLE "2:cjc102_0343"
    INDEX 01 01:01:58
  TRACK 75 AUDIO
    TITLE "0:"
    INDEX 01 01:02:55
  TRACK 76 AUDIO
    TITLE "3:cjc102_0344"
    INDEX 01 01:04:03
  TRACK 77 AUDIO
    TITLE "0:"
    INDEX 01 01:05:21
  TRACK 78 AUDIO
    TITLE "2:cjc102_0345"
    INDEX 01 01:05:44
  TRACK 79 AUDIO
    TITLE "0:"
    INDEX 01 01:06:51
  TRACK 80 AUDIO
    TITLE "2:cjc102_0346"
    INDEX 01 01:07:04
  TRACK 81 AUDIO
    TITLE "0:"
    INDEX 01 01:08:13
  TRACK 82 AUDIO
    TITLE "3:cjc102_0347"
    INDEX 01 01:09:36
  TRACK 83 AUDIO
    TITLE "0:"
    INDEX 01 01:10:53
  TRACK 84 AUDIO
    TITLE "2:cjc102_0348"
    INDEX 01 01:11:03
  TRACK 85 AUDIO
    TITLE "0:"
    INDEX 01 01:12:32
  TRACK 86 AUDIO
    TITLE "2:cjc102_0349"
    INDEX 01 01:12:54
  TRACK 87 AUDIO
    TITLE "0:"
    INDEX 01 01:13:71
  TRACK 88 AUDIO
    TITLE "3:cjc102_0350"
    INDEX 01 01:15:11
  TRACK 89 AUDIO
    TITLE "0:"
    INDEX 01 01:16:18
  TRACK 90 AUDIO
    TITLE "2:cjc102_0351"
    INDEX 01 01:16:73
  TRACK 91 AUDIO
    TITLE "0:"
    INDEX 01 01:17:71
  TRACK 92 AUDIO
    TITLE "2:cjc102_0352"
    INDEX 01 01:18:29
  TRACK 93 AUDIO
    TITLE "0:"
    INDEX 01 01:19:11
  TRACK 94 AUDIO
    TITLE "3:cjc102_0353"
    INDEX 01 01:20:46
  TRACK 95 AUDIO
    TITLE "0:"
    INDEX 01 01:21:70
  TRACK 96 AUDIO
    TITLE "2:cjc102_0354"
    INDEX 01 01:22:39
  TRACK 97 AUDIO
    TITLE "0:"
    INDEX 01 01:23:50
  TRACK 98 AUDIO
    TITLE "2:cjc102_0355"
    INDEX 01 01:24:16
  TRACK 99 AUDIO
    TITLE "0:"
    INDEX 01 01:25:21
  TRACK 100 AUDIO
    TITLE "3:cjc102_0356"
    INDEX 01 01:26:56
  TRACK 101 AUDIO
    TITLE "0:"
    INDEX 01 01:27:69
  TRACK 102 AUDIO
    TITLE "2:cjc102_0357"
    INDEX 01 01:28:49
  TRACK 103 AUDIO
    TITLE "0:"
    INDEX 01 01:29:58
  TRACK 104 AUDIO
    TITLE "2:cjc102_0358"
    INDEX 01 01:30:24
  TRACK 105 AUDIO
    TITLE "0:"
    INDEX 01 01:31:12
